<mxfile host="app.diagrams.net" modified="2021-05-11T01:39:46.188Z" agent="5.0 (Windows NT 10.0; Win64; x64) AppleWebKit/537.36 (KHTML, like Gecko) Chrome/90.0.4430.93 Safari/537.36" etag="hXACt1lAuq1WqptlVjpi" version="14.6.11" type="github">
  <diagram id="plcKJ1l-_DmnqYvUJ-GF" name="Page-1">
    <mxGraphModel dx="1422" dy="1862" grid="1" gridSize="10" guides="1" tooltips="1" connect="1" arrows="1" fold="1" page="1" pageScale="1" pageWidth="850" pageHeight="1100" math="0" shadow="0">
      <root>
        <mxCell id="0" />
        <mxCell id="1" parent="0" />
        <mxCell id="1bt1qt_TbQiL3yZRhh2u-15" value="" style="strokeWidth=1;shadow=0;dashed=0;align=center;html=1;shape=mxgraph.mockup.containers.browserWindow;rSize=0;strokeColor=#666666;strokeColor2=#008cff;strokeColor3=#c4c4c4;mainText=,;recursiveResize=0;" vertex="1" parent="1">
          <mxGeometry x="580" y="-1080" width="800" height="700" as="geometry" />
        </mxCell>
        <mxCell id="1bt1qt_TbQiL3yZRhh2u-16" value="Dogs are important" style="strokeWidth=1;shadow=0;dashed=0;align=center;html=1;shape=mxgraph.mockup.containers.anchor;fontSize=17;fontColor=#666666;align=left;" vertex="1" parent="1bt1qt_TbQiL3yZRhh2u-15">
          <mxGeometry x="60" y="12" width="110" height="26" as="geometry" />
        </mxCell>
        <mxCell id="1bt1qt_TbQiL3yZRhh2u-17" value="https://www.draw.io" style="strokeWidth=1;shadow=0;dashed=0;align=center;html=1;shape=mxgraph.mockup.containers.anchor;rSize=0;fontSize=17;fontColor=#666666;align=left;" vertex="1" parent="1bt1qt_TbQiL3yZRhh2u-15">
          <mxGeometry x="130" y="60" width="250" height="26" as="geometry" />
        </mxCell>
        <mxCell id="1bt1qt_TbQiL3yZRhh2u-21" style="edgeStyle=orthogonalEdgeStyle;rounded=0;orthogonalLoop=1;jettySize=auto;html=1;" edge="1" parent="1bt1qt_TbQiL3yZRhh2u-15" source="1bt1qt_TbQiL3yZRhh2u-18" target="1bt1qt_TbQiL3yZRhh2u-15">
          <mxGeometry relative="1" as="geometry" />
        </mxCell>
        <mxCell id="1bt1qt_TbQiL3yZRhh2u-18" value="Dogs are Important" style="rounded=1;whiteSpace=wrap;html=1;fillColor=#6EFFD8;" vertex="1" parent="1bt1qt_TbQiL3yZRhh2u-15">
          <mxGeometry x="20" y="140" width="740" height="60" as="geometry" />
        </mxCell>
        <mxCell id="1bt1qt_TbQiL3yZRhh2u-19" value="" style="verticalLabelPosition=bottom;shadow=0;dashed=0;align=center;html=1;verticalAlign=top;strokeWidth=1;shape=mxgraph.mockup.containers.userMale;strokeColor=#666666;strokeColor2=#008cff;" vertex="1" parent="1bt1qt_TbQiL3yZRhh2u-15">
          <mxGeometry x="20" y="220" width="180" height="130" as="geometry" />
        </mxCell>
        <mxCell id="1bt1qt_TbQiL3yZRhh2u-20" value="The website that I am creating is all about dogs. I have found that they are really important to people. They are friendly and lovely just like us. Looking at how they act, and how they" style="rounded=0;whiteSpace=wrap;html=1;" vertex="1" parent="1bt1qt_TbQiL3yZRhh2u-15">
          <mxGeometry x="250" y="220" width="530" height="130" as="geometry" />
        </mxCell>
      </root>
    </mxGraphModel>
  </diagram>
</mxfile>
